<svg
  class="logo"
  data-variant="home"
  width="371"
  height="120"
  viewBox="0 0 371 120"
  fill="none"
  xmlns="http://www.w3.org/2000/svg"
>
  <g data-letter="a">
    <path
      class="cutout"
      d="M59.0158 62.8584L68.5731 46.4417L74.8491 57.223C82.2866 54.9157 90.0679 52.9521 98.1304 51.348L68.5731 0.577148L34.6356 58.8636L18.396 86.7647C29.4168 77.3324 43.1981 69.2542 59.0158 62.8584Z"
    />
    <path
      d="M174.136 52.447C94.3338 45.7699 21.5109 73.6813 0.703613 117.15H27.4067C41.4015 101.093 61.4588 86.8532 85.8026 76.0355L90.0265 83.2959L109.74 117.15H136.443L107.625 67.6605C121.402 63.1449 136.183 59.6709 151.735 57.4678C166.308 55.4001 180.584 54.598 194.318 54.9001C187.719 53.8636 180.995 53.0199 174.136 52.447Z"
    />
  </g>
  <path
    data-letter="m"
    d="M214.31 105.329C210.409 108.095 209.68 105.98 209.19 101.267L209.112 73.8813C209.274 66.0845 207.565 62.8345 202.69 59.2563C192.289 59.2563 183.43 73.0688 178.149 87.7772C171.649 75.2668 163.93 59.2563 156.534 59.2563L141.831 71.5272L143.211 74.1261C148.003 71.1209 149.383 72.6626 149.55 77.7043V104.6C149.55 111.829 152.878 116.543 156.534 118.819L169.946 107.85L168.076 105.329C164.258 108.095 163.446 105.98 163.039 101.267C162.633 97.2876 162.55 91.5168 162.633 85.7459C169.539 99.2355 174.821 114.595 180.019 114.595L191.8 103.949L190.42 101.834C188.956 103.137 187.17 102.163 185.222 99.6418C188.31 88.1834 192.128 71.1209 196.107 71.0376L196.269 104.6C196.269 111.829 199.034 116.543 202.69 118.819L216.18 107.85L214.31 105.329Z"
  />
  <path
    data-letter="b"
    d="M252.901 83.3271L262.896 76.0928C265.985 68.2126 259.156 59.0303 251.031 59.0303L236.813 69.6761C236.568 64.8011 235.511 60.7386 230.474 59.0303L215.849 71.3011L217.229 73.8219C222.021 70.8115 224.052 72.4365 224.219 77.3949V108.353C224.136 112.009 222.833 114.369 221.453 116.645L223.729 118.593L224.219 118.103C231.203 113.801 237.057 118.593 242.172 118.593C246.156 118.593 250.708 115.994 253.386 113.395L267.037 100.473C268.339 91.374 261.432 84.6292 252.901 83.3271ZM243.557 84.0563L236.891 89.3376V73.9001L243.557 69.1865C252.25 69.1865 253.792 75.6865 243.557 84.0563ZM255.094 106.89C251.438 111.931 245.016 104.291 236.891 104.129V94.0511C247.865 90.4782 259.318 100.634 255.094 106.89Z"
  />
  <path
    data-letter="c"
    d="M285.361 66.749C277.559 73.6553 268.944 83.4105 271.22 96.7334C274.47 110.384 283.247 118.593 293.976 118.593C304.455 118.593 310.304 112.254 317.622 103.806L315.424 101.853C301.288 115.749 288.694 101.853 285.2 91.2907C282.356 81.2126 284.304 73.4157 288.45 70.4886C296.413 64.473 299.502 82.8376 308.679 80.973L321.111 72.4365L319.486 69.8376C311.2 74.1449 311.606 59.0303 301.127 59.0303C295.679 59.0303 291.861 60.8167 285.361 66.749Z"
  />
  <path
    data-letter="o"
    d="M347.682 59.2563L328.02 75.2668C314.369 89.0793 329.645 114.673 342.401 118.819L363.937 101.512C378.968 87.6991 368.322 59.2563 347.682 59.2563ZM353.859 104.678C341.182 104.678 331.27 80.1418 339.473 71.5272C354.994 71.5272 359.708 94.1991 353.859 104.678Z"
  />
</svg>
