<svg
  class="logo"
  width="1044"
  height="139"
  viewBox="0 0 1044 139"
  fill="none"
  xmlns="http://www.w3.org/2000/svg"
>
  <g data-word="ambco">
    <g data-letter="a">
      <path
        class="cutout"
        d="M58.3119 62.3125L67.8692 45.8958L74.1453 56.6771C81.5828 54.3698 89.364 52.4062 97.4265 50.8021L67.8692 0.03125L33.9317 58.3177L17.6921 86.2188C28.713 76.7865 42.4942 68.7083 58.3119 62.3125Z"
      />
      <path
        d="M173.432 51.9006C93.6302 45.2235 20.8073 73.1349 0 116.604H26.7031C40.6979 100.546 60.7552 86.3068 85.099 75.4891L89.3229 82.7495L109.036 116.604H135.74L106.922 67.1141C120.698 62.5985 135.479 59.1245 151.031 56.9214C165.604 54.8537 179.88 54.0516 193.615 54.3537C187.016 53.3172 180.292 52.4735 173.432 51.9006Z"
      />
    </g>
    <path
      data-letter="m"
      d="M144.078 117V65.4375H157.945V74.7148C159.475 71.2318 161.64 68.6439 164.439 66.9512C167.239 65.2259 170.283 64.3633 173.57 64.3633C177.053 64.3633 180.13 65.2585 182.799 67.0488C185.501 68.8066 187.389 71.2643 188.463 74.4219C189.83 71.2643 191.979 68.8066 194.908 67.0488C197.87 65.2585 201.223 64.3633 204.967 64.3633C209.915 64.3633 214.033 65.9746 217.32 69.1973C220.608 72.3874 222.252 76.9284 222.252 82.8203V117H207.896V85.457C207.896 82.3646 207.05 80.0534 205.357 78.5234C203.697 76.9935 201.63 76.2285 199.156 76.2285C196.389 76.2285 194.192 77.1237 192.564 78.9141C190.937 80.7044 190.123 83.0482 190.123 85.9453V117H176.256V85.0664C176.256 82.3971 175.458 80.265 173.863 78.6699C172.268 77.0423 170.217 76.2285 167.711 76.2285C165.139 76.2285 162.958 77.1237 161.168 78.9141C159.378 80.7044 158.482 83.2598 158.482 86.5801V117H144.078Z"
    />
    <path
      data-letter="b"
      d="M261.998 118.074C258.613 118.074 255.585 117.326 252.916 115.828C250.279 114.331 248.212 112.085 246.715 109.09H246.666V117H232.457V44.2461H246.861V72.5664H246.91C248.57 69.7995 250.67 67.7487 253.209 66.4141C255.781 65.0469 258.743 64.3633 262.096 64.3633C266.49 64.3633 270.348 65.5026 273.668 67.7812C277.021 70.0273 279.625 73.1686 281.48 77.2051C283.368 81.2415 284.312 85.8965 284.312 91.1699C284.312 96.541 283.385 101.245 281.529 105.281C279.674 109.318 277.07 112.459 273.717 114.705C270.396 116.951 266.49 118.074 261.998 118.074ZM258.287 106.355C261.77 106.355 264.553 105.037 266.637 102.4C268.753 99.7311 269.811 95.9876 269.811 91.1699C269.811 86.3522 268.753 82.625 266.637 79.9883C264.553 77.319 261.77 75.9844 258.287 75.9844C254.641 75.9844 251.712 77.3678 249.498 80.1348C247.285 82.9017 246.178 86.5801 246.178 91.1699C246.178 95.7923 247.285 99.487 249.498 102.254C251.712 104.988 254.641 106.355 258.287 106.355Z"
    />
    <path
      data-letter="c"
      d="M315.855 118.172C310.68 118.172 306.155 117.049 302.281 114.803C298.408 112.524 295.38 109.367 293.199 105.33C291.051 101.261 289.977 96.5736 289.977 91.2676C289.977 85.929 291.051 81.2415 293.199 77.2051C295.38 73.1361 298.408 69.9622 302.281 67.6836C306.155 65.4049 310.68 64.2656 315.855 64.2656C320.38 64.2656 324.4 65.1445 327.916 66.9023C331.464 68.6276 334.296 71.0365 336.412 74.1289C338.561 77.1888 339.781 80.7207 340.074 84.7246H326.158C325.768 82.0879 324.693 79.9557 322.936 78.3281C321.21 76.7005 318.915 75.8867 316.051 75.8867C312.438 75.8867 309.605 77.2702 307.555 80.0371C305.504 82.804 304.479 86.5475 304.479 91.2676C304.479 95.9551 305.504 99.6823 307.555 102.449C309.605 105.184 312.438 106.551 316.051 106.551C318.948 106.551 321.227 105.737 322.887 104.109C324.547 102.482 325.605 100.317 326.061 97.6152H340.074C339.879 101.587 338.723 105.118 336.607 108.211C334.492 111.303 331.643 113.745 328.062 115.535C324.514 117.293 320.445 118.172 315.855 118.172Z"
    />
    <path
      data-letter="o"
      d="M371.715 118.172C366.507 118.172 361.933 117.049 357.994 114.803C354.088 112.557 351.028 109.432 348.814 105.428C346.633 101.391 345.543 96.6712 345.543 91.2676C345.543 85.8639 346.633 81.1439 348.814 77.1074C351.028 73.071 354.088 69.9297 357.994 67.6836C361.933 65.4049 366.507 64.2656 371.715 64.2656C376.956 64.2656 381.529 65.4049 385.436 67.6836C389.374 69.9297 392.434 73.071 394.615 77.1074C396.829 81.1439 397.936 85.8639 397.936 91.2676C397.936 96.6387 396.829 101.342 394.615 105.379C392.434 109.415 389.374 112.557 385.436 114.803C381.529 117.049 376.956 118.172 371.715 118.172ZM371.715 106.502C375.23 106.502 378.062 105.167 380.211 102.498C382.359 99.7962 383.434 96.0527 383.434 91.2676C383.434 86.4499 382.359 82.6901 380.211 79.9883C378.062 77.2865 375.23 75.9355 371.715 75.9355C368.232 75.9355 365.416 77.2865 363.268 79.9883C361.119 82.6901 360.045 86.4499 360.045 91.2676C360.045 96.0527 361.119 99.7962 363.268 102.498C365.416 105.167 368.232 106.502 371.715 106.502Z"
    />
  </g>
  <g data-word="hygiene">
    <path
      data-letter="h"
      d="M427.721 117V44.2461H442.76V73.4453H473.668V44.2461H488.658V117H473.668V86.3359H442.76V117H427.721Z"
    />
    <path
      data-letter="y"
      d="M501.305 137.41V126.033H507.848C509.573 126.033 510.842 125.61 511.656 124.764C512.503 123.95 513.268 122.55 513.951 120.564L515.367 116.805L495.543 65.4375H510.631L519.273 90.9258C519.859 92.7812 520.429 94.6367 520.982 96.4922C521.568 98.3477 522.138 100.203 522.691 102.059C523.245 100.203 523.814 98.3477 524.4 96.4922C524.986 94.6042 525.572 92.7487 526.158 90.9258L534.85 65.4375H549.791L527.086 124.959C525.458 129.256 523.342 132.397 520.738 134.383C518.134 136.401 514.83 137.41 510.826 137.41H501.305Z"
    />
    <path
      data-letter="g"
      d="M577.916 138.094C570.592 138.094 564.928 136.564 560.924 133.504C556.92 130.444 554.56 126.408 553.844 121.395H567.711C568.232 123.348 569.387 124.845 571.178 125.887C572.968 126.961 575.214 127.498 577.916 127.498C581.432 127.498 584.133 126.538 586.021 124.617C587.942 122.697 588.902 119.881 588.902 116.17V108.26H588.854C587.324 111.287 585.24 113.517 582.604 114.949C579.999 116.349 577.005 117.049 573.619 117.049C569.127 117.049 565.204 115.926 561.852 113.68C558.499 111.434 555.895 108.357 554.039 104.451C552.216 100.512 551.305 95.9714 551.305 90.8281C551.305 85.6523 552.232 81.0788 554.088 77.1074C555.976 73.1361 558.58 70.0273 561.9 67.7812C565.253 65.5026 569.127 64.3633 573.521 64.3633C576.842 64.3633 579.804 65.0794 582.408 66.5117C585.045 67.9115 587.193 70.0436 588.854 72.9082H588.902V65.4375H603.111V114.998C603.111 120.434 602.037 124.845 599.889 128.23C597.773 131.648 594.827 134.139 591.051 135.701C587.275 137.296 582.896 138.094 577.916 138.094ZM577.33 105.525C580.976 105.525 583.906 104.174 586.119 101.473C588.333 98.7708 589.439 95.1576 589.439 90.6328C589.439 86.1406 588.333 82.5436 586.119 79.8418C583.906 77.14 580.976 75.7891 577.33 75.7891C573.847 75.7891 571.048 77.0911 568.932 79.6953C566.848 82.2669 565.807 85.9128 565.807 90.6328C565.807 95.3854 566.848 99.0638 568.932 101.668C571.048 104.24 573.847 105.525 577.33 105.525Z"
    />
    <path
      data-letter="i"
      d="M613.316 117V65.4375H627.721V117H613.316ZM620.494 58.9434C618.118 58.9434 616.148 58.2272 614.586 56.7949C613.023 55.3301 612.242 53.4909 612.242 51.2773C612.242 49.0638 613.023 47.2409 614.586 45.8086C616.148 44.3438 618.118 43.6113 620.494 43.6113C622.838 43.6113 624.791 44.3438 626.354 45.8086C627.916 47.2409 628.697 49.0638 628.697 51.2773C628.697 53.4909 627.916 55.3301 626.354 56.7949C624.791 58.2272 622.838 58.9434 620.494 58.9434Z"
    />
    <path
      data-letter="e"
      d="M776.207 118.172C770.999 118.172 766.458 117.016 762.584 114.705C758.743 112.394 755.748 109.22 753.6 105.184C751.484 101.115 750.426 96.4759 750.426 91.2676C750.426 86.0267 751.5 81.3717 753.648 77.3027C755.829 73.2337 758.824 70.0436 762.633 67.7324C766.441 65.4212 770.803 64.2656 775.719 64.2656C780.797 64.2656 785.224 65.4049 789 67.6836C792.809 69.9297 795.771 73.071 797.887 77.1074C800.035 81.1113 801.109 85.7337 801.109 90.9746V94.832H764.439C764.57 98.6406 765.693 101.684 767.809 103.963C769.924 106.242 772.87 107.381 776.646 107.381C779.446 107.381 781.773 106.779 783.629 105.574C785.517 104.37 786.786 102.775 787.438 100.789H800.572C799.954 104.207 798.505 107.218 796.227 109.822C793.948 112.426 791.083 114.477 787.633 115.975C784.182 117.439 780.374 118.172 776.207 118.172ZM764.537 85.6523H787.535C787.177 82.4297 785.973 79.8906 783.922 78.0352C781.904 76.1471 779.267 75.2031 776.012 75.2031C772.789 75.2031 770.169 76.1471 768.15 78.0352C766.132 79.8906 764.928 82.4297 764.537 85.6523Z"
    />
    <path
      data-letter="n"
      d="M708.482 88.3379V117H694.078V65.4375H708.238V73.543C709.996 70.6133 712.193 68.3509 714.83 66.7559C717.467 65.1608 720.641 64.3633 724.352 64.3633C729.82 64.3633 734.199 66.1374 737.486 69.6855C740.774 73.2012 742.418 78.2142 742.418 84.7246V117H728.062V87.3613C728.062 83.9108 727.232 81.2904 725.572 79.5C723.912 77.6771 721.585 76.7656 718.59 76.7656C715.628 76.7656 713.202 77.6934 711.314 79.5488C709.426 81.4043 708.482 84.334 708.482 88.3379Z"
    />
    <path
      data-letter="e"
      d="M661.461 118.172C656.253 118.172 651.712 117.016 647.838 114.705C643.997 112.394 641.002 109.22 638.854 105.184C636.738 101.115 635.68 96.4759 635.68 91.2676C635.68 86.0267 636.754 81.3717 638.902 77.3027C641.083 73.2337 644.078 70.0436 647.887 67.7324C651.695 65.4212 656.057 64.2656 660.973 64.2656C666.051 64.2656 670.478 65.4049 674.254 67.6836C678.062 69.9297 681.025 73.071 683.141 77.1074C685.289 81.1113 686.363 85.7337 686.363 90.9746V94.832H649.693C649.824 98.6406 650.947 101.684 653.062 103.963C655.178 106.242 658.124 107.381 661.9 107.381C664.7 107.381 667.027 106.779 668.883 105.574C670.771 104.37 672.04 102.775 672.691 100.789H685.826C685.208 104.207 683.759 107.218 681.48 109.822C679.202 112.426 676.337 114.477 672.887 115.975C669.436 117.439 665.628 118.172 661.461 118.172ZM649.791 85.6523H672.789C672.431 82.4297 671.227 79.8906 669.176 78.0352C667.158 76.1471 664.521 75.2031 661.266 75.2031C658.043 75.2031 655.423 76.1471 653.404 78.0352C651.386 79.8906 650.182 82.4297 649.791 85.6523Z"
    />
  </g>
  <g data-word="care">
    <path
      data-letter="c"
      d="M862.877 118.172C856.204 118.172 850.263 116.658 845.055 113.631C839.846 110.571 835.745 106.242 832.75 100.643C829.788 95.0111 828.307 88.3542 828.307 80.6719C828.307 72.9245 829.788 66.2513 832.75 60.6523C835.745 55.0208 839.846 50.6914 845.055 47.6641C850.263 44.6042 856.204 43.0742 862.877 43.0742C868.574 43.0742 873.684 44.181 878.209 46.3945C882.766 48.6081 886.493 51.7331 889.391 55.7695C892.288 59.7734 894.127 64.4772 894.908 69.8809H879.723C878.844 65.584 876.923 62.2637 873.961 59.9199C871.031 57.5436 867.402 56.3555 863.072 56.3555C856.887 56.3555 852.07 58.5527 848.619 62.9473C845.169 67.3092 843.443 73.2174 843.443 80.6719C843.443 88.0612 845.169 93.9531 848.619 98.3477C852.07 102.71 856.887 104.891 863.072 104.891C867.369 104.891 870.982 103.719 873.912 101.375C876.874 99.0312 878.827 95.7272 879.771 91.4629H894.908C894.127 96.8665 892.288 101.57 889.391 105.574C886.493 109.578 882.766 112.687 878.209 114.9C873.684 117.081 868.574 118.172 862.877 118.172Z"
    />
    <path
      data-letter="a"
      d="M918.736 117.879C913.593 117.879 909.345 116.593 905.992 114.021C902.672 111.45 901.012 107.592 901.012 102.449C901.012 98.5755 901.939 95.5482 903.795 93.3672C905.65 91.1536 908.108 89.5423 911.168 88.5332C914.228 87.5241 917.548 86.8568 921.129 86.5312C925.849 86.043 929.153 85.5547 931.041 85.0664C932.929 84.5781 933.873 83.5039 933.873 81.8438V81.502C933.873 79.6139 933.124 78.0677 931.627 76.8633C930.13 75.6589 928.062 75.0566 925.426 75.0566C922.757 75.0566 920.592 75.6751 918.932 76.9121C917.271 78.1491 916.36 79.7604 916.197 81.7461H902.672C902.997 76.4401 905.178 72.2246 909.215 69.0996C913.251 65.9421 918.801 64.3633 925.865 64.3633C932.929 64.3633 938.398 65.9421 942.271 69.0996C946.145 72.2246 948.082 76.5378 948.082 82.0391V117H934.02V109.725H933.824C932.457 112.231 930.585 114.217 928.209 115.682C925.833 117.146 922.675 117.879 918.736 117.879ZM922.74 107.869C926.191 107.869 928.925 106.958 930.943 105.135C932.962 103.279 933.971 100.952 933.971 98.1523V92.9766C933.157 93.4323 931.806 93.8555 929.918 94.2461C928.03 94.6042 925.93 94.9622 923.619 95.3203C921.145 95.7109 919.046 96.4271 917.32 97.4688C915.628 98.4779 914.781 100.008 914.781 102.059C914.781 103.882 915.497 105.314 916.93 106.355C918.395 107.365 920.331 107.869 922.74 107.869Z"
    />
    <path
      data-letter="r"
      d="M958.238 117V65.4375H972.105V74.2266H972.252C973.196 71.1341 974.677 68.8392 976.695 67.3418C978.714 65.8444 981.432 65.0957 984.85 65.0957C985.696 65.0957 986.461 65.112 987.145 65.1445C987.861 65.1771 988.512 65.1934 989.098 65.1934V77.4492C988.577 77.4167 987.714 77.3678 986.51 77.3027C985.305 77.2376 984.101 77.2051 982.896 77.2051C979.934 77.2051 977.477 78.2142 975.523 80.2324C973.603 82.2507 972.643 85.1966 972.643 89.0703V117H958.238Z"
    />
    <path
      data-letter="e"
      d="M1018.59 118.172C1013.38 118.172 1008.84 117.016 1004.97 114.705C1001.13 112.394 998.131 109.22 995.982 105.184C993.867 101.115 992.809 96.4759 992.809 91.2676C992.809 86.0267 993.883 81.3717 996.031 77.3027C998.212 73.2337 1001.21 70.0436 1005.02 67.7324C1008.82 65.4212 1013.19 64.2656 1018.1 64.2656C1023.18 64.2656 1027.61 65.4049 1031.38 67.6836C1035.19 69.9297 1038.15 73.071 1040.27 77.1074C1042.42 81.1113 1043.49 85.7337 1043.49 90.9746V94.832H1006.82C1006.95 98.6406 1008.08 101.684 1010.19 103.963C1012.31 106.242 1015.25 107.381 1019.03 107.381C1021.83 107.381 1024.16 106.779 1026.01 105.574C1027.9 104.37 1029.17 102.775 1029.82 100.789H1042.96C1042.34 104.207 1040.89 107.218 1038.61 109.822C1036.33 112.426 1033.47 114.477 1030.02 115.975C1026.57 117.439 1022.76 118.172 1018.59 118.172ZM1006.92 85.6523H1029.92C1029.56 82.4297 1028.36 79.8906 1026.3 78.0352C1024.29 76.1471 1021.65 75.2031 1018.39 75.2031C1015.17 75.2031 1012.55 76.1471 1010.53 78.0352C1008.51 79.8906 1007.31 82.4297 1006.92 85.6523Z"
    />
  </g>
</svg>
