<svg width="512" height="512" viewBox="0 0 512 512" fill="none" xmlns="http://www.w3.org/2000/svg">
<mask id="mask0_158_72" style="mask-type:luminance" maskUnits="userSpaceOnUse" x="46" y="102" width="212" height="232">
<path d="M46.2207 102H257.775V333.346H46.2207V102Z" fill="white" style="fill:white;fill-opacity:1;"/>
</mask>
<g mask="url(#mask0_158_72)">
<path d="M154.202 266.782L179.476 223.37L196.072 251.88C215.74 245.778 236.317 240.586 257.638 236.344L179.476 102.084L89.7303 256.218L46.7859 330.001C75.9297 305.058 112.373 283.696 154.202 266.782Z" fill="#127E36" style="fill:#127E36;fill:color(display-p3 0.0706 0.4941 0.2118);fill-opacity:1;"/>
</g>
<path d="M458.629 239.248C247.598 221.591 55.0234 295.401 0 410.351H70.6145C107.623 367.889 160.663 330.233 225.038 301.626L236.208 320.826L288.339 410.351H358.954L282.747 279.479C319.177 267.538 358.265 258.351 399.391 252.525C437.928 247.057 475.68 244.936 512 245.735C494.55 242.994 476.768 240.763 458.629 239.248Z" fill="#043D8B" style="fill:#043D8B;fill:color(display-p3 0.0157 0.2392 0.5451);fill-opacity:1;"/>
</svg>
